<svg height="54" viewBox="0 0 22 54" width="22" xmlns="http://www.w3.org/2000/svg"><path d="m0 0h22v54h-22z" fill="none"/><path d="m19 6h-16a3 3 0 0 0 -3 3v38a3 3 0 0 0 3 3h16a3 3 0 0 0 3-3v-38a3 3 0 0 0 -3-3zm2 41a2.0023 2.0023 0 0 1 -2 2h-16a2.0023 2.0023 0 0 1 -2-2v-38a2.0023 2.0023 0 0 1 2-2h2.625a.4725.4725 0 0 1 .4886.4545v.6164a.9613.9613 0 0 0 .9773.9291h7.8182a.9613.9613 0 0 0 .9773-.9291v-.6164a.4725.4725 0 0 1 .4886-.4545h2.625a2.0023 2.0023 0 0 1 2 2zm-7.247-39.4943a.3262.3262 0 1 1 -.3262-.33.3281.3281 0 0 1 .3262.33zm-1.1467 0a.2485.2485 0 0 1 -.2471.25h-1.977a.25.25 0 0 1 0-.5h1.977a.2486.2486 0 0 1 .2471.25z" fill="#1d1d1f"/></svg>