<svg height="54" viewBox="0 0 58 54" width="58" xmlns="http://www.w3.org/2000/svg"><path d="m0 0h58v54h-58z" fill="none"/><path d="m49.63 47.5a1.13 1.13 0 1 1 -1.13-1.13 1.1313 1.1313 0 0 1 1.13 1.13zm8.37-34.5v34a3 3 0 0 1 -3 3h-13a2.98 2.98 0 0 1 -2.0125-.7888 4.2986 4.2986 0 0 0 .4173-.6528 4.72 4.72 0 0 0 .4253-1.2546 9.8045 9.8045 0 0 0 .1338-1.8618v-.442h16.0361v-30h-16.0359v-3.3952-.2958c-.0013-.3717-.0144-.7374-.0423-1.1009a2.9787 2.9787 0 0 1 1.0782-.2081h13a3 3 0 0 1 3 3zm-13.125-.5a.375.375 0 1 0 -.375.375.3751.3751 0 0 0 .375-.375zm6.125 0a.2507.2507 0 0 0 -.25-.25h-4.5a.25.25 0 0 0 0 .5h4.5a.2507.2507 0 0 0 .25-.25zm-.75 35a1.75 1.75 0 1 0 -1.75 1.75 1.75 1.75 0 0 0 1.75-1.75zm-44.3186-34.2452a2.17 2.17 0 0 1 -3.1614-.9869 2.0725 2.0725 0 0 1 1.8552-2.8035 2.0641 2.0641 0 0 1 1.3062 3.7904zm3.6775-1.2148a2.0735 2.0735 0 0 0 -1.7864 2.988 2.1838 2.1838 0 0 0 3.1055.7922 2.0645 2.0645 0 0 0 -1.3191-3.7802zm-4.8967 2.58a2.0711 2.0711 0 0 0 -1.9373 2.8163 2.16 2.16 0 0 0 3.8074.2979 2.0657 2.0657 0 0 0 -1.8701-3.1142zm13.8547 33.9388a4.282 4.282 0 0 0 .6758.9554 4.2852 4.2852 0 0 1 -1.011.33 7.5369 7.5369 0 0 1 -1.2056.1188c-.3713.0115-.8637.01-1.2544.01h-10.06-.416q-.1659 0-.33-.0012a9.3781 9.3781 0 0 1 -1.7146-.1274 4.24 4.24 0 0 1 -1.1153-.3737 3.6736 3.6736 0 0 1 -1.6218-1.61 4.1528 4.1528 0 0 1 -.3765-1.107 9.9231 9.9231 0 0 1 -.1294-1.8654q0-.1623 0-.3269v-32.373q0-.1648 0-.327a9.9254 9.9254 0 0 1 .1298-1.8655 4.1545 4.1545 0 0 1 .3765-1.1069 3.6727 3.6727 0 0 1 1.6218-1.61 4.24 4.24 0 0 1 1.1153-.3738 7.5187 7.5187 0 0 1 1.2058-.1187c.3713-.0115.8637-.01 1.2544-.01h10.06.416c.11 0 .22 0 .3294.0012a9.3755 9.3755 0 0 1 1.7146.1274 4.2855 4.2855 0 0 1 1.011.33 4.2834 4.2834 0 0 0 -.6758.9557 4.721 4.721 0 0 0 -.4255 1.2546 9.8129 9.8129 0 0 0 -.1336 1.862v.2967 33.54.295a9.8162 9.8162 0 0 0 .1336 1.8635 4.7187 4.7187 0 0 0 .4255 1.2562zm-6.18-36.0307c0-.2793 0-.4735-.0005-.6361 0-.16-.002-.2922-.0061-.4136a4.0069 4.0069 0 0 0 -.08-.7093 2.7176 2.7176 0 0 0 -.2514-.7 2.5577 2.5577 0 0 0 -1.0697-1.0691 2.7142 2.7142 0 0 0 -.7-.2514 3.9791 3.9791 0 0 0 -.7092-.08c-.1213-.0042-.2539-.0057-.4138-.0063-.1624-.0006-.3567 0-.636 0h-2.7392c-.2793 0-.4736 0-.6362 0-.16.0006-.2923.0021-.4136.0063a3.9834 3.9834 0 0 0 -.71.08 2.71 2.71 0 0 0 -.6989.2514 2.5577 2.5577 0 0 0 -1.0694 1.07 2.7176 2.7176 0 0 0 -.2514.7 3.9791 3.9791 0 0 0 -.08.7093c-.0044.1214-.0056.2538-.0063.4136v.6361 3.146.636c.0007.16.0019.2922.0063.4137a3.9791 3.9791 0 0 0 .08.7092 2.7156 2.7156 0 0 0 .2514.7 2.5567 2.5567 0 0 0 1.0694 1.0693 2.7058 2.7058 0 0 0 .6994.2514 3.9836 3.9836 0 0 0 .71.08c.1213.0042.2537.0056.4136.0063.1626.0006.3569 0 .6362 0h2.74.636c.16-.0007.2925-.0021.4138-.0063a3.9792 3.9792 0 0 0 .7092-.08 2.71 2.71 0 0 0 .7-.2514 2.5567 2.5567 0 0 0 1.0694-1.0693 2.7156 2.7156 0 0 0 .2514-.7 4.0069 4.0069 0 0 0 .08-.7092c.0041-.1215.0056-.2538.0061-.4137.0005-.1625.0005-.3568.0005-.636zm7.3423 36.02a3.3 3.3 0 0 1 -.2708-.4431 3.517 3.517 0 0 1 -.2014-.482 3.5234 3.5234 0 0 0 .2014.4821 3.3052 3.3052 0 0 0 .2704.4429zm4.1353-40.7981h.1174.1092 10.7995.3687l.2881.001a7.4562 7.4562 0 0 1 1.3418.0957 2.7547 2.7547 0 0 1 .7314.245 2.2833 2.2833 0 0 1 1.0068 1.007 2.748 2.748 0 0 1 .2449.731 8.1062 8.1062 0 0 1 .0965 1.4867v.2882 33.3154.5147a8.0945 8.0945 0 0 1 -.0965 1.4849 2.7507 2.7507 0 0 1 -.2451.7315 2.2833 2.2833 0 0 1 -1.0072 1.0071 2.7491 2.7491 0 0 1 -.7308.2448 5.6 5.6 0 0 1 -.913.0885c-.253.0079-.5711.0085-.86.0085h-.1162-.1092-10.7997-.37l-.2871-.001a7.4493 7.4493 0 0 1 -1.3423-.0958 2.75 2.75 0 0 1 -.7307-.2448 2.2829 2.2829 0 0 1 -1.0071-1.0071 2.7492 2.7492 0 0 1 -.2448-.731 8.0353 8.0353 0 0 1 -.0965-1.4832v-.2917-33.54-.29a8.04 8.04 0 0 1 .0968-1.4854 2.7528 2.7528 0 0 1 .2448-.7315 2.286 2.286 0 0 1 1.0066-1.0065 2.7569 2.7569 0 0 1 .7312-.245 5.6079 5.6079 0 0 1 .9131-.0885c.253-.0079.5711-.0085.8594-.0085m0-1c-.2988 0-.6284.0008-.89.009a6.6509 6.6509 0 0 0 -1.0745.1065 3.76 3.76 0 0 0 -.9932.3353 3.2852 3.2852 0 0 0 -1.4437 1.4442 3.76 3.76 0 0 0 -.3352.9931 8.9478 8.9478 0 0 0 -.115 1.6735q-.0006.1455 0 .2932v33.54.2933a8.9467 8.9467 0 0 0 .115 1.6734 3.7587 3.7587 0 0 0 .3352.9931 3.2852 3.2852 0 0 0 1.4441 1.4442 3.7561 3.7561 0 0 0 .9932.3353 8.2882 8.2882 0 0 0 1.5268.1143q.1458.0009.2933.001h.3706 10.7995.2263c.2989 0 .6287-.0008.8907-.009a6.6486 6.6486 0 0 0 1.0737-.1065 3.75 3.75 0 0 0 .9929-.3353 3.2838 3.2838 0 0 0 1.4444-1.4442 3.7587 3.7587 0 0 0 .3352-.9931 8.9722 8.9722 0 0 0 .115-1.6734v-.5172-33.3159q0-.1478 0-.2932a8.9733 8.9733 0 0 0 -.115-1.6735 3.76 3.76 0 0 0 -.3352-.9931 3.2838 3.2838 0 0 0 -1.4444-1.4442 3.754 3.754 0 0 0 -.9929-.3353 8.2987 8.2987 0 0 0 -1.5269-.1143q-.1457-.0009-.2932-.001h-.3706-10.7995-.2266zm7.7293 1.51h-4.1727a.9138.9138 0 0 0 0 1.8275h4.1727a.9138.9138 0 1 0 0-1.8275zm.0522 1.3637a.45.45 0 1 1 .45-.45.45.45 0 0 1 -.45.4501z" fill="#1d1d1f"/></svg>